<svg id="OBJECT" xmlns="http://www.w3.org/2000/svg" viewBox="0 0 32 32"><defs><style>.cls-1{fill:#011839;}.cls-2{fill:#7738c8;}</style></defs><path class="cls-1" d="M28,21H26V16a1,1,0,0,0-2,0V29H8V16a1,1,0,0,0-2,0v5H4a3,3,0,0,0-3,3v4a3,3,0,0,0,3,3H28a3,3,0,0,0,3-3V24A3,3,0,0,0,28,21ZM3,28V24a1,1,0,0,1,1-1H6v6H4A1,1,0,0,1,3,28Zm26,0a1,1,0,0,1-1,1H26V23h2a1,1,0,0,1,1,1Z"/><path class="cls-1" d="M20,25H12a1,1,0,0,0,0,2h8a1,1,0,0,0,0-2Z"/><path class="cls-1" d="M20,21H12a1,1,0,0,0,0,2h8a1,1,0,0,0,0-2Z"/><path class="cls-1" d="M12,19a1,1,0,0,0,1-1V16.36a1,1,0,0,0-2,0V18A1,1,0,0,0,12,19Z"/><path class="cls-1" d="M20,19a1,1,0,0,0,1-1V16.36a1,1,0,0,0-2,0V18A1,1,0,0,0,20,19Z"/><path class="cls-2" d="M28,8a3,3,0,0,0-3-3H20V4a3,3,0,0,0-3-3H15a3,3,0,0,0-3,3V5H7A3,3,0,0,0,4,8v5H28ZM14,4a1,1,0,0,1,1-1h2a1,1,0,0,1,1,1V5H14Zm8,6H10A1,1,0,0,1,9,9H9a1,1,0,0,1,1-1H22a1,1,0,0,1,1,1h0A1,1,0,0,1,22,10Z"/></svg>