<svg id="OBJECT" xmlns="http://www.w3.org/2000/svg" viewBox="0 0 32 32"><defs><style>.cls-1{fill:#011839;}.cls-2{fill:#7738c8;}</style></defs><path class="cls-1" d="M25,1H9.5A3.5,3.5,0,0,0,6,4.5v18a1,1,0,0,0,2,0V4.5A1.5,1.5,0,0,1,9.5,3H24V22a1,1,0,0,0,2,0V2A1,1,0,0,0,25,1Z"/><path class="cls-1" d="M20,11H12a1,1,0,0,0,0,2h8a1,1,0,0,0,0-2Z"/><path class="cls-1" d="M20,6H17a1,1,0,0,0,0,2h3a1,1,0,0,0,0-2Z"/><path class="cls-1" d="M12,8h.5a1,1,0,0,0,0-2H12a1,1,0,0,0,0,2Z"/><path class="cls-2" d="M25,25H9a3,3,0,0,0,0,6H25a1,1,0,0,0,1-1V26A1,1,0,0,0,25,25Z"/></svg>