<svg id="OBJECT" xmlns="http://www.w3.org/2000/svg" viewBox="0 0 32 32"><defs><style>.cls-1{fill:#011839;}.cls-2{fill:#7738c8;}</style></defs><path class="cls-1" d="M29,12a1,1,0,0,0-1,1V29H4V13a1,1,0,0,0-2,0V30a1,1,0,0,0,1,1H29a1,1,0,0,0,1-1V13A1,1,0,0,0,29,12Z"/><path class="cls-1" d="M8,26H24a1,1,0,0,0,0-2H8a1,1,0,0,0,0,2Z"/><path class="cls-1" d="M13,21H24a1,1,0,0,0,0-2H13a1,1,0,0,0,0,2Z"/><path class="cls-1" d="M8,21H9a1,1,0,0,0,0-2H8a1,1,0,0,0,0,2Z"/><path class="cls-2" d="M31,4.5V2a1,1,0,0,0-1-1H2A1,1,0,0,0,1,2V4.5H5a1,1,0,0,1,1,1H6a1,1,0,0,1-1,1H1V9a1,1,0,0,0,1,1H30a1,1,0,0,0,1-1V6.5H27a1,1,0,0,1-1-1h0a1,1,0,0,1,1-1Z"/></svg>