<svg id="OBJECT" xmlns="http://www.w3.org/2000/svg" viewBox="0 0 32 32"><defs><style>.cls-1{fill:#011839;}.cls-2{fill:#7738c8;}</style></defs><path class="cls-1" d="M10,7a1,1,0,0,0,1-1V4a1,1,0,0,1,1-1h8a1,1,0,0,1,1,1V6a1,1,0,0,0,2,0V4a3,3,0,0,0-3-3H12A3,3,0,0,0,9,4V6A1,1,0,0,0,10,7Z"/><path class="cls-1" d="M29,19a1,1,0,0,0-1,1v9H4V20a1,1,0,0,0-2,0V30a1,1,0,0,0,1,1H29a1,1,0,0,0,1-1V20A1,1,0,0,0,29,19Z"/><path class="cls-2" d="M30,8H2A1,1,0,0,0,1,9v9H8a1,1,0,0,1,1,1v3a1,1,0,0,0,1,1h0a1,1,0,0,0,1-1V19a1,1,0,0,1,1-1h8a1,1,0,0,1,1,1v3a1,1,0,0,0,1,1h0a1,1,0,0,0,1-1V19a1,1,0,0,1,1-1h7V9A1,1,0,0,0,30,8ZM11.43,13.5H8.57a1,1,0,0,1-1-1h0a1,1,0,0,1,1-1h2.86a1,1,0,0,1,1,1h0A1,1,0,0,1,11.43,13.5Zm5,0h-.86a1,1,0,0,1-1-1h0a1,1,0,0,1,1-1h.86a1,1,0,0,1,1,1h0A1,1,0,0,1,16.43,13.5Zm7,0H20.57a1,1,0,0,1-1-1h0a1,1,0,0,1,1-1h2.86a1,1,0,0,1,1,1h0A1,1,0,0,1,23.43,13.5Z"/></svg>