<svg id="OBJECT" xmlns="http://www.w3.org/2000/svg" viewBox="0 0 32 32"><defs><style>.cls-1{fill:#011839;}.cls-2{fill:#7738c8;}</style></defs><path class="cls-1" d="M23.45,12.19,19.81,8.55a3.08,3.08,0,0,0-4.24,0l-1,1a1,1,0,0,0,0,1.42l.54.54L1.73,26.32a2.79,2.79,0,0,0,.09,3.86,2.82,2.82,0,0,0,2,.82,2.78,2.78,0,0,0,1.88-.73L20.48,16.9l.54.54a1,1,0,0,0,.71.29,1,1,0,0,0,.71-.29l1-1a3,3,0,0,0,0-4.24ZM4.34,28.79a.8.8,0,0,1-1.13-1.13l4.28-4.74,1.59,1.59Zm6.22-5.63L8.83,21.44l7.68-8.51,2.56,2.56ZM22,15l-.3.3-5.05-5.05L17,10a1,1,0,0,1,1.42,0L22,13.6A1,1,0,0,1,22,15Z"/><path class="cls-2" d="M30.72,1.28A1,1,0,0,0,30,1c-1.1.06-6.68.45-8.48,2.25A5.1,5.1,0,0,0,20,6.76L25.24,12a5.14,5.14,0,0,0,3.52-1.49C30.55,8.7,30.94,3.12,31,2A1,1,0,0,0,30.72,1.28Z"/></svg>