<svg id="OBJECT" xmlns="http://www.w3.org/2000/svg" viewBox="0 0 32 32"><defs><style>.cls-1{fill:#011839;}.cls-2{fill:#7738c8;}</style></defs><path class="cls-1" d="M28,1H4A3,3,0,0,0,1,4V28a3,3,0,0,0,3,3H28a3,3,0,0,0,3-3V4A3,3,0,0,0,28,1Zm1,27a1,1,0,0,1-1,1H4a1,1,0,0,1-1-1V4A1,1,0,0,1,4,3H28a1,1,0,0,1,1,1Z"/><path class="cls-1" d="M25.5,16H21a1,1,0,0,0-1,1v9a1,1,0,0,0,1,1h4.5a1,1,0,0,0,1-1V17A1,1,0,0,0,25.5,16Zm-1,9H22V18h2.5Z"/><path class="cls-1" d="M7.41,16.41H6.5a1,1,0,0,0,0,2h.91a1,1,0,0,0,0-2Z"/><path class="cls-1" d="M12,16.41h-.9a1,1,0,0,0,0,2H12a1,1,0,0,0,0-2Z"/><path class="cls-1" d="M16.5,16.41h-.91a1,1,0,0,0,0,2h.91a1,1,0,0,0,0-2Z"/><path class="cls-1" d="M7.41,24.59H6.5a1,1,0,0,0,0,2h.91a1,1,0,0,0,0-2Z"/><path class="cls-1" d="M12,24.59h-.9a1,1,0,0,0,0,2H12a1,1,0,0,0,0-2Z"/><path class="cls-1" d="M16.5,24.59h-.91a1,1,0,0,0,0,2h.91a1,1,0,0,0,0-2Z"/><path class="cls-1" d="M7.41,20.5H6.5a1,1,0,0,0,0,2h.91a1,1,0,0,0,0-2Z"/><path class="cls-1" d="M12,20.5h-.9a1,1,0,1,0,0,2H12a1,1,0,1,0,0-2Z"/><path class="cls-1" d="M16.5,20.5h-.91a1,1,0,0,0,0,2h.91a1,1,0,0,0,0-2Z"/><path class="cls-2" d="M26,5H6A1,1,0,0,0,5,6v6a1,1,0,0,0,1,1H26a1,1,0,0,0,1-1V6A1,1,0,0,0,26,5ZM10.43,10H9.57a1,1,0,0,1,0-2h.86a1,1,0,0,1,0,2Zm6,0h-.86a1,1,0,0,1,0-2h.86a1,1,0,0,1,0,2Zm6,0h-.86a1,1,0,0,1,0-2h.86a1,1,0,0,1,0,2Z"/></svg>