<svg id="OBJECT" xmlns="http://www.w3.org/2000/svg" viewBox="0 0 32 32"><defs><style>.cls-1{fill:#011839;}.cls-2{fill:#7738c8;}</style></defs><path class="cls-1" d="M30,10a1,1,0,0,0-1,1V29H3V11a1,1,0,0,0-2,0V30a1,1,0,0,0,1,1H30a1,1,0,0,0,1-1V11A1,1,0,0,0,30,10Z"/><path class="cls-1" d="M6,27H26a1,1,0,0,0,1-1V14a1,1,0,0,0-1-1H6a1,1,0,0,0-1,1V26A1,1,0,0,0,6,27ZM7,15H25V25H7Z"/><path class="cls-1" d="M11,17H10a1,1,0,0,0,0,2h1a1,1,0,0,0,0-2Z"/><path class="cls-1" d="M16.5,17h-1a1,1,0,0,0,0,2h1a1,1,0,0,0,0-2Z"/><path class="cls-1" d="M22,17H21a1,1,0,0,0,0,2h1a1,1,0,0,0,0-2Z"/><path class="cls-1" d="M11,21H10a1,1,0,0,0,0,2h1a1,1,0,0,0,0-2Z"/><path class="cls-1" d="M16.5,21h-1a1,1,0,0,0,0,2h1a1,1,0,0,0,0-2Z"/><path class="cls-1" d="M22,21H21a1,1,0,0,0,0,2h1a1,1,0,0,0,0-2Z"/><path class="cls-2" d="M30,4H28V2a1,1,0,0,0-1-1h0a1,1,0,0,0-1,1V4H22.5V2a1,1,0,0,0-1-1h0a1,1,0,0,0-1,1V4H17V2a1,1,0,0,0-1-1h0a1,1,0,0,0-1,1V4H11.5V2a1,1,0,0,0-1-1h0a1,1,0,0,0-1,1V4H6V2A1,1,0,0,0,5,1H5A1,1,0,0,0,4,2V4H2A1,1,0,0,0,1,5V8C5.35,8,13.94,8,31,8V5A1,1,0,0,0,30,4Z"/></svg>