<svg id="OBJECT" xmlns="http://www.w3.org/2000/svg" viewBox="0 0 32 32"><defs><style>.cls-1{fill:#011839;}.cls-2{fill:#7738c8;}</style></defs><path class="cls-1" d="M30.47,19.76l-1.12-4.49A3,3,0,0,0,26.44,13h-4l-.82-3.55,2.42-1.62A1,1,0,0,0,24.5,7V2a1,1,0,0,0-1-1H8.5a1,1,0,0,0-1,1V7A1,1,0,0,0,8,7.83l2.42,1.62L9.55,13h-4a3,3,0,0,0-2.91,2.27L1.53,19.76a1,1,0,0,0,1.94.48l1.12-4.49a1,1,0,0,1,1-.75H9.09L8,19.77a1,1,0,1,0,1.94.46L11.14,15h9.72l1.21,5.23A1,1,0,0,0,23,21l.23,0a1,1,0,0,0,.74-1.2L22.91,15h3.53a1,1,0,0,1,1,.75l1.12,4.49a1,1,0,0,0,1.94-.48ZM11.6,13l.87-3.78a1,1,0,0,0-.42-1.05L9.5,6.46V3h13V6.46L20,8.17a1,1,0,0,0-.42,1.05L20.4,13Z"/><rect class="cls-2" x="4" y="29" width="24" height="2" rx="1"/><path class="cls-2" d="M1,23v3a1,1,0,0,0,1,1H30a1,1,0,0,0,1-1V23Z"/></svg>