<svg id="OBJECT" xmlns="http://www.w3.org/2000/svg" viewBox="0 0 32 32"><defs><style>.cls-1{fill:#011839;}.cls-2{fill:#7738c8;}</style></defs><path class="cls-1" d="M25,6H20a1,1,0,0,0,0,2h4V29H8V8h4a1,1,0,0,0,0-2H7A1,1,0,0,0,6,7V30a1,1,0,0,0,1,1H25a1,1,0,0,0,1-1V7A1,1,0,0,0,25,6Z"/><path class="cls-1" d="M20,19H12a1,1,0,0,0,0,2h8a1,1,0,0,0,0-2Z"/><path class="cls-1" d="M20,24H12a1,1,0,0,0,0,2h8a1,1,0,0,0,0-2Z"/><path class="cls-1" d="M17,16h3a1,1,0,0,0,0-2H17a1,1,0,0,0,0,2Z"/><path class="cls-1" d="M12,14a1,1,0,0,0,0,2h.5a1,1,0,0,0,0-2Z"/><path class="cls-2" d="M14.5,6V7.5a1.5,1.5,0,0,0,3,0V6a1,1,0,0,1,1-1H22V4a3,3,0,0,0-3-3H13a3,3,0,0,0-3,3V5h3.5A1,1,0,0,1,14.5,6Z"/></svg>