<svg id="OBJECT" xmlns="http://www.w3.org/2000/svg" viewBox="0 0 32 32"><defs><style>.cls-1{fill:#011839;}.cls-2{fill:#7738c8;}</style></defs><path class="cls-1" d="M24.62,13.46,18.54,7.38a1,1,0,0,0-1-.25L13,8.66h0a.92.92,0,0,0-.36.23L1.92,19.54a3.16,3.16,0,0,0,0,4.46L8,30.08a3.16,3.16,0,0,0,4.46,0L23.1,19.43a.92.92,0,0,0,.23-.36s0,0,0,0l1.53-4.56A1,1,0,0,0,24.62,13.46ZM17.56,9.23l5.21,5.21L22,16.88,15.12,10ZM11,28.66a1.14,1.14,0,0,1-1.62,0L3.34,22.58a1.14,1.14,0,0,1,0-1.62L13.27,11,21,18.73Z"/><path class="cls-1" d="M9.42,19.54A1,1,0,0,0,8,21l3,3a1,1,0,0,0,.71.29,1,1,0,0,0,.71-.29,1,1,0,0,0,0-1.42Z"/><path class="cls-1" d="M15.5,19.54l-3-3a1,1,0,0,0-1.42,0,1,1,0,0,0,0,1.41L14.09,21a1,1,0,0,0,.7.29A1,1,0,0,0,15.5,21,1,1,0,0,0,15.5,19.54Z"/><rect class="cls-2" x="22.24" y="5.43" width="2.38" height="6.3" transform="translate(0.8 19.07) rotate(-45)"/><path class="cls-2" d="M30.71,7.38,24.62,1.29a1,1,0,0,0-1.41,0L21.93,2.57l7.5,7.5,1.28-1.28A1,1,0,0,0,30.71,7.38Z"/></svg>