<svg id="OBJECT" xmlns="http://www.w3.org/2000/svg" viewBox="0 0 32 32"><defs><style>.cls-1{fill:#011839;}.cls-2{fill:#7738c8;}</style></defs><path class="cls-1" d="M29.73,28.61h0a3,3,0,0,0,.74-4.16L23.34,13.82A1,1,0,0,0,22,13.55a1,1,0,0,0-.28,1.39l7.14,10.63a1,1,0,0,1-.21,1.37L21.38,16.27a1,1,0,0,0-1.66,1.12l4.71,7A33.46,33.46,0,0,1,17,25.43v-1.7a1,1,0,0,0-2,0v1.7a33.72,33.72,0,0,1-7.45-1.06l4.73-7a1,1,0,0,0-1.66-1.12L3.41,27a1,1,0,0,1-.23-1.4l7.13-10.62a1,1,0,0,0-1.66-1.12L1.53,24.43a3,3,0,0,0,.74,4.18h0l-.57.82A1,1,0,0,0,2.53,31a1,1,0,0,0,.82-.43l3-4.45A36,36,0,0,0,15,27.44v2.29a1,1,0,1,0,2,0V27.44a36.2,36.2,0,0,0,8.62-1.31l3,4.44a1,1,0,0,0,1.39.25,1,1,0,0,0,.25-1.39Z"/><path class="cls-2" d="M18,4.82V1.67A.67.67,0,0,0,17.33,1H14.67a.67.67,0,0,0-.67.67V4.82a6.41,6.41,0,0,1,4,0Z"/><path class="cls-2" d="M16,6.5A4.5,4.5,0,1,0,20.5,11,4.51,4.51,0,0,0,16,6.5Zm.25,5.5h-.5a1,1,0,0,1,0-2h.5a1,1,0,0,1,0,2Z"/></svg>