<svg id="OBJECT" xmlns="http://www.w3.org/2000/svg" viewBox="0 0 32 32"><defs><style>.cls-1{fill:#011839;}.cls-2{fill:#7738c8;}</style></defs><path class="cls-1" d="M16,31A15,15,0,1,1,31,16,15,15,0,0,1,16,31ZM16,3A13,13,0,1,0,29,16,13,13,0,0,0,16,3Z"/><path class="cls-2" d="M16,5A11,11,0,1,0,27,16,11,11,0,0,0,16,5Zm4.45,7.82-3,9a1,1,0,0,1-.91.68h0a1,1,0,0,1-.92-.61l-1.64-3.83-3.83-1.64a1,1,0,0,1-.61-1,1,1,0,0,1,.68-.91l9-3a1,1,0,0,1,1.27,1.27Z"/><path class="cls-2" d="M15.09,16.38a1,1,0,0,1,.53.53l.76,1.78,1.54-4.61-4.61,1.54Z"/></svg>