<svg id="OBJECT" xmlns="http://www.w3.org/2000/svg" viewBox="0 0 32 32"><defs><style>.cls-1{fill:#011839;}.cls-2{fill:#7738c8;}</style></defs><path class="cls-1" d="M16,1H2A1,1,0,0,0,1,2V30a1,1,0,0,0,1,1H16a1,1,0,0,0,1-1V2A1,1,0,0,0,16,1ZM15,29H3V3H15Z"/><path class="cls-1" d="M11.5,26a1,1,0,0,0,1-1V12a1,1,0,0,0-2,0V25A1,1,0,0,0,11.5,26Z"/><path class="cls-1" d="M11.5,9a1,1,0,0,0,1-1V7a1,1,0,0,0-2,0V8A1,1,0,0,0,11.5,9Z"/><path class="cls-1" d="M6.5,26a1,1,0,0,0,1-1V7a1,1,0,0,0-2,0V25A1,1,0,0,0,6.5,26Z"/><path class="cls-2" d="M21,16a3,3,0,0,0-2-2.82v5.64A3,3,0,0,0,21,16Z"/><path class="cls-2" d="M19,3.05V11.1a5,5,0,0,1,0,9.8V29a13,13,0,0,0,0-25.9Z"/></svg>