<svg id="OBJECT" xmlns="http://www.w3.org/2000/svg" viewBox="0 0 32 32"><defs><style>.cls-1{fill:#011839;}.cls-2{fill:#7738c8;}</style></defs><path class="cls-1" d="M29,14.72A8.35,8.35,0,1,0,16.25,4L6,16.19A1,1,0,0,0,6,17.39l2.5,3.69a1,1,0,0,0,.42.36l4.07,1.81a1,1,0,0,0,.41.09,1,1,0,0,0,.76-.36l5.07-6A8.31,8.31,0,0,0,29,14.72ZM18.17,15l-5.1,6.08L9.94,19.73,8,16.89,17.78,5.27a6.35,6.35,0,1,1,9.73,8.16h0a6.33,6.33,0,0,1-8.07,1.39A1,1,0,0,0,18.17,15Z"/><path class="cls-1" d="M30,29H17a1,1,0,0,0,0,2H30a1,1,0,0,0,0-2Z"/><path class="cls-1" d="M13,29H11a1,1,0,0,0,0,2h2a1,1,0,0,0,0-2Z"/><path class="cls-2" d="M7.65,22.43a1,1,0,0,1-.42-.35L5,18.83l-3.8,4.71a1,1,0,0,0-.11,1.12l3.12,5.81A1,1,0,0,0,5,31h.1a1,1,0,0,0,.76-.36L11.26,24Z"/><path class="cls-2" d="M24.69,6.67A3.5,3.5,0,1,0,20.19,12a3.51,3.51,0,0,0,4.94-.43h0A3.5,3.5,0,0,0,24.69,6.67Z"/></svg>