<svg id="OBJECT" xmlns="http://www.w3.org/2000/svg" viewBox="0 0 32 32"><defs><style>.cls-1{fill:#011839;}.cls-2{fill:#7738c8;}</style></defs><path class="cls-1" d="M30.12,8.7,23.3,1.88A3,3,0,0,0,21.17,1H20a1,1,0,0,0,0,2h1.17a1,1,0,0,1,.71.3l6.82,6.82a1,1,0,0,1,.3.71V28a1,1,0,0,1-1,1H26V20a1,1,0,0,0-1-1H7a1,1,0,0,0-1,1v9H4a1,1,0,0,1-1-1V4A1,1,0,0,1,4,3,1,1,0,0,0,4,1,3,3,0,0,0,1,4V28a3,3,0,0,0,3,3H28a3,3,0,0,0,3-3V10.83A3,3,0,0,0,30.12,8.7ZM8,21H24v8H8Z"/><path class="cls-1" d="M11.43,24h-.86a1,1,0,0,0,0,2h.86a1,1,0,0,0,0-2Z"/><path class="cls-1" d="M16.43,24h-.86a1,1,0,0,0,0,2h.86a1,1,0,0,0,0-2Z"/><path class="cls-1" d="M21.43,24h-.86a1,1,0,0,0,0,2h.86a1,1,0,0,0,0-2Z"/><path class="cls-2" d="M17,1H7A1,1,0,0,0,6,2v8a1,1,0,0,0,1,1H17a1,1,0,0,0,1-1V2A1,1,0,0,0,17,1ZM13,7H11a1,1,0,0,1,0-2h2a1,1,0,0,1,0,2Z"/></svg>