<svg id="OBJECT" xmlns="http://www.w3.org/2000/svg" viewBox="0 0 32 32"><defs><style>.cls-1{fill:#011839;}.cls-2{fill:#7738c8;}</style></defs><path class="cls-1" d="M26,1H2A1,1,0,0,0,1,2V20a1,1,0,0,0,1,1H26a1,1,0,0,0,1-1V2A1,1,0,0,0,26,1ZM25,19H3V3H25Z"/><path class="cls-1" d="M10.13,11.47,8.3,13.29a1,1,0,0,0,0,1.42,1,1,0,0,0,1.42,0l2-2a.53.53,0,0,0,.06-.1l1.66,1.18a1,1,0,0,0,1.16,0l1.66-1.18a.53.53,0,0,0,.06.1l2,2a1,1,0,0,0,1.42,0,1,1,0,0,0,0-1.42l-1.83-1.82,3.71-2.66a1,1,0,1,0-1.16-1.62L14,11.77,7.58,7.19A1,1,0,1,0,6.42,8.81Z"/><path class="cls-2" d="M30,11H29V22a1,1,0,0,1-1,1H5v7a1,1,0,0,0,1,1H30a1,1,0,0,0,1-1V12A1,1,0,0,0,30,11ZM10.85,28H10a1,1,0,0,1-1-1H9a1,1,0,0,1,1-1h.85a1,1,0,0,1,1,1h0A1,1,0,0,1,10.85,28Zm5,0H15a1,1,0,0,1-1-1h0a1,1,0,0,1,1-1h.85a1,1,0,0,1,1,1h0A1,1,0,0,1,15.85,28Zm5,0H20a1,1,0,0,1-1-1h0a1,1,0,0,1,1-1h.85a1,1,0,0,1,1,1h0A1,1,0,0,1,20.85,28Z"/></svg>