<svg id="OBJECT" xmlns="http://www.w3.org/2000/svg" viewBox="0 0 32 32"><defs><style>.cls-1{fill:#011839;}.cls-2{fill:#7738c8;}</style></defs><path class="cls-1" d="M25,13a1,1,0,0,0-1,1V29H8V14a1,1,0,0,0-2,0V30a1,1,0,0,0,1,1H25a1,1,0,0,0,1-1V14A1,1,0,0,0,25,13Z"/><path class="cls-1" d="M16,23a3,3,0,0,0,1-5.82V15a1,1,0,0,0-2,0v2.18A3,3,0,0,0,16,23Zm0-4a1,1,0,1,1-1,1A1,1,0,0,1,16,19Z"/><path class="cls-2" d="M9.35,12h13.3L26,8.65V2a1,1,0,0,0-1-1H7A1,1,0,0,0,6,2V8.65ZM15.5,5h5a1,1,0,0,1,1,1h0a1,1,0,0,1-1,1h-5a1,1,0,0,1-1-1h0A1,1,0,0,1,15.5,5Zm-4,0H12a1,1,0,0,1,1,1h0a1,1,0,0,1-1,1h-.5a1,1,0,0,1-1-1h0A1,1,0,0,1,11.5,5Z"/></svg>