<svg id="OBJECT" xmlns="http://www.w3.org/2000/svg" viewBox="0 0 32 32"><defs><style>.cls-1{fill:#011839;}.cls-2{fill:#7738c8;}</style></defs><path class="cls-1" d="M25,0H7A1,1,0,0,0,6,1V18a1,1,0,0,0,2,0V2H24V18a1,1,0,0,0,2,0V1A1,1,0,0,0,25,0Z"/><path class="cls-1" d="M20,12.5H12a1,1,0,0,0,0,2h8a1,1,0,0,0,0-2Z"/><path class="cls-1" d="M20,7.5H17a1,1,0,0,0,0,2h3a1,1,0,0,0,0-2Z"/><path class="cls-1" d="M12,9.5h.5a1,1,0,0,0,0-2H12a1,1,0,0,0,0,2Z"/><rect class="cls-2" x="6" y="21" width="20" height="3"/><path class="cls-2" d="M8,30a1,1,0,0,0,1,1H23a1,1,0,0,0,1-1V26H8Z"/></svg>