<svg id="OBJECT" xmlns="http://www.w3.org/2000/svg" viewBox="0 0 32 32"><defs><style>.cls-1{fill:#011839;}.cls-2{fill:#7738c8;}</style></defs><path class="cls-1" d="M30,18H12.62l-1.73-3.45A1,1,0,0,0,10,14H2a1,1,0,0,0-1,1V30a1,1,0,0,0,1,1H30a1,1,0,0,0,1-1V19A1,1,0,0,0,30,18ZM29,29H3V16H9.38l1,2H7.19a1,1,0,0,0,0,2H29Z"/><path class="cls-1" d="M20,27h1a1,1,0,0,0,0-2H20a1,1,0,0,0,0,2Z"/><path class="cls-1" d="M25,27h1a1,1,0,0,0,0-2H25a1,1,0,0,0,0,2Z"/><path class="cls-2" d="M12.89,12.55,14.62,16H26V2a1,1,0,0,0-1-1H7A1,1,0,0,0,6,2V12h6A1,1,0,0,1,12.89,12.55ZM17,3h3a1,1,0,0,1,1,1h0a1,1,0,0,1-1,1H17a1,1,0,0,1-1-1h0A1,1,0,0,1,17,3ZM12,3h.5a1,1,0,0,1,1,1h0a1,1,0,0,1-1,1H12a1,1,0,0,1-1-1h0A1,1,0,0,1,12,3Zm0,5h8a1,1,0,0,1,1,1h0a1,1,0,0,1-1,1H12a1,1,0,0,1-1-1h0A1,1,0,0,1,12,8Z"/></svg>