<svg id="OBJECT" xmlns="http://www.w3.org/2000/svg" viewBox="0 0 32 32"><defs><style>.cls-1{fill:#011839;}.cls-2{fill:#7738c8;}</style></defs><path class="cls-1" d="M24.79,16.67,15.33,7.21a1,1,0,0,0-1.42,0L1.29,19.83a1,1,0,0,0,0,1.41l9.47,9.47a1,1,0,0,0,1.41,0L24.79,18.09a1,1,0,0,0,.29-.71A1,1,0,0,0,24.79,16.67ZM11.46,28.59l-8-8L14.62,9.33l8.05,8Z"/><path class="cls-1" d="M10.59,18.25a1,1,0,1,0-1.41,1.41l3.15,3.16a1,1,0,0,0,.71.29,1,1,0,0,0,.71-.29,1,1,0,0,0,0-1.41Z"/><path class="cls-1" d="M12.33,15.1a1,1,0,0,0,0,1.41l3.16,3.15a1,1,0,0,0,.71.3,1,1,0,0,0,.7-.3,1,1,0,0,0,0-1.41L13.75,15.1A1,1,0,0,0,12.33,15.1Z"/><path class="cls-2" d="M30.74,3.32,28.68,1.26a.86.86,0,0,0-1.15-.08L23,4.52l4.53,4.53,3.34-4.58A.86.86,0,0,0,30.74,3.32Z"/><rect class="cls-2" x="20.49" y="4.11" width="3.88" height="10.92" transform="translate(-0.2 18.66) rotate(-45)"/></svg>