<svg id="OBJECT" xmlns="http://www.w3.org/2000/svg" viewBox="0 0 32 32"><defs><style>.cls-1{fill:#011839;}.cls-2{fill:#7738c8;}</style></defs><path class="cls-1" d="M30,8.83,23.18,2a3.39,3.39,0,0,0-2.42-1h0a3.37,3.37,0,0,0-2.41,1L8,12.38a3.35,3.35,0,0,0-1,2.41v4.13a1,1,0,0,0,2,0V14.79a1.38,1.38,0,0,1,.41-1L19.77,3.42a1.38,1.38,0,0,1,1-.42h0a1.4,1.4,0,0,1,1,.42l6.82,6.82a1.4,1.4,0,0,1,.42,1,1.42,1.42,0,0,1-.42,1L18.19,22.62a1.34,1.34,0,0,1-1,.41H13.09a1,1,0,0,0-1,1,1,1,0,0,0,1,1h4.12a3.34,3.34,0,0,0,2.4-1L30,13.65a3.38,3.38,0,0,0,0-4.82Z"/><path class="cls-1" d="M16.64,18.77a1,1,0,0,0,1.42,0l6-6a1,1,0,1,0-1.42-1.42l-6,6A1,1,0,0,0,16.64,18.77Z"/><path class="cls-1" d="M19.2,8l-3.41,3.41a1,1,0,0,0,0,1.42,1,1,0,0,0,.71.29,1,1,0,0,0,.7-.29l3.42-3.41A1,1,0,1,0,19.2,8Z"/><path class="cls-2" d="M1.59,26.17a1,1,0,0,0-.29.62L1,29.91a1,1,0,0,0,.29.8A1,1,0,0,0,2,31h.09l3.12-.3a1,1,0,0,0,.62-.28l1.7-1.71L3.29,24.47Z"/><rect class="cls-2" x="6.39" y="19.54" width="2.82" height="9.24" transform="translate(-14.8 12.59) rotate(-44.99)"/></svg>