<svg id="OBJECT" xmlns="http://www.w3.org/2000/svg" viewBox="0 0 32 32"><defs><style>.cls-1{fill:#011839;}.cls-2{fill:#7738c8;}</style></defs><path class="cls-1" d="M30,7H22.85l-.59-3.49a3,3,0,0,0-3-2.51H12.69A3,3,0,0,0,9.74,3.51L9.15,7H2A1,1,0,0,0,1,8V30a1,1,0,0,0,1,1H30a1,1,0,0,0,1-1V8A1,1,0,0,0,30,7ZM11.71,3.84a1,1,0,0,1,1-.84h6.62a1,1,0,0,1,1,.84L20.82,7H19a1,1,0,0,0-1,1V9a2,2,0,0,1-4,0V8a1,1,0,0,0-1-1H11.18ZM29,29H3V9h9a4,4,0,0,0,8,0h9Z"/><path class="cls-2" d="M26,23H17a1,1,0,0,0,0,2h9a1,1,0,0,0,0-2Z"/><path class="cls-2" d="M21,21h5a1,1,0,0,0,0-2H21a1,1,0,0,0,0,2Z"/><path class="cls-2" d="M17,21h.5a1,1,0,0,0,0-2H17a1,1,0,0,0,0,2Z"/><path class="cls-2" d="M11.38,20.8A3,3,0,0,0,12,19a3,3,0,0,0-6,0,3,3,0,0,0,.62,1.8A4,4,0,0,0,5,24v2a1,1,0,0,0,1,1h6a1,1,0,0,0,1-1V24A4,4,0,0,0,11.38,20.8Z"/></svg>