<svg id="OBJECT" xmlns="http://www.w3.org/2000/svg" viewBox="0 0 32 32"><defs><style>.cls-1{fill:#011839;}.cls-2{fill:#7738c8;}</style></defs><path class="cls-1" d="M29.24,14.56l-7.63-3.47a1,1,0,1,0-.82,1.82l7.63,3.47a1,1,0,0,1,.58.91V28a1,1,0,0,1-1,1H4a1,1,0,0,1-1-1V17.29a1,1,0,0,1,.58-.91l7.63-3.47a1,1,0,1,0-.82-1.82L2.76,14.56A3,3,0,0,0,1,17.29V28a3,3,0,0,0,3,3H28a3,3,0,0,0,3-3V17.29A3,3,0,0,0,29.24,14.56Z"/><path class="cls-1" d="M5,21v3a3,3,0,0,0,3,3H24a3,3,0,0,0,3-3V21a3,3,0,0,0-3-3H8A3,3,0,0,0,5,21Zm20,0v3a1,1,0,0,1-1,1H8a1,1,0,0,1-1-1V21a1,1,0,0,1,1-1H24A1,1,0,0,1,25,21Z"/><path class="cls-1" d="M10.57,23.5h.86a1,1,0,0,0,0-2h-.86a1,1,0,0,0,0,2Z"/><path class="cls-1" d="M15.57,23.5h.86a1,1,0,0,0,0-2h-.86a1,1,0,0,0,0,2Z"/><path class="cls-1" d="M20.57,23.5h.86a1,1,0,0,0,0-2h-.86a1,1,0,0,0,0,2Z"/><path class="cls-2" d="M22,1H19.5V2.2a1,1,0,0,1-2,0V1h-3V2.2a1,1,0,0,1-2,0V1H10A1,1,0,0,0,9,2V6H23V2A1,1,0,0,0,22,1Z"/><rect class="cls-2" x="12" y="8" width="8" height="2"/></svg>