<svg id="OBJECT" xmlns="http://www.w3.org/2000/svg" viewBox="0 0 32 32"><defs><style>.cls-1{fill:#011839;}.cls-2{fill:#7738c8;}</style></defs><path class="cls-1" d="M28,6H4A1,1,0,0,0,3,7V19a1,1,0,0,0,2,0V8H27V19a1,1,0,0,0,2,0V7A1,1,0,0,0,28,6Z"/><path class="cls-1" d="M24,16H18a1,1,0,0,0,0,2h6a1,1,0,0,0,0-2Z"/><path class="cls-1" d="M24,11H20a1,1,0,0,0,0,2h4a1,1,0,0,0,0-2Z"/><path class="cls-1" d="M14.55,12.17l-3-2a1,1,0,0,0-1.1,0l-3,2A1,1,0,0,0,7,13v4a1,1,0,0,0,1,1h6a1,1,0,0,0,1-1V13A1,1,0,0,0,14.55,12.17ZM13,16H9V13.54l2-1.34,2,1.34Z"/><path class="cls-2" d="M1,22v2a2,2,0,0,0,2,2H29a2,2,0,0,0,2-2V22Z"/></svg>