<svg id="OBJECT" xmlns="http://www.w3.org/2000/svg" viewBox="0 0 32 32"><defs><style>.cls-1{fill:#011839;}.cls-2{fill:#7738c8;}</style></defs><path class="cls-1" d="M30.27,26.73l-5.49-5.48a13,13,0,1,0-3.53,3.54l5.48,5.48a2.5,2.5,0,0,0,3.54-3.54ZM3,14A11,11,0,1,1,14,25,11,11,0,0,1,3,14ZM28.85,28.85a.48.48,0,0,1-.7,0l-5.33-5.32c.24-.23.48-.47.7-.71l5.33,5.33a.49.49,0,0,1,.15.35A.47.47,0,0,1,28.85,28.85Z"/><path class="cls-2" d="M14,5a9,9,0,1,0,9,9A9,9,0,0,0,14,5Zm3.21,7.9-3.55,3.6a1,1,0,0,1-1.43,0L10.79,15a1,1,0,1,1,1.42-1.41l.74.75,2.84-2.88a1,1,0,0,1,1.42,1.4Z"/></svg>