<svg id="OBJECT" xmlns="http://www.w3.org/2000/svg" viewBox="0 0 32 32"><defs><style>.cls-1{fill:#011839;}.cls-2{fill:#7738c8;}</style></defs><path class="cls-1" d="M12,12h8a1,1,0,0,0,0-2H12a1,1,0,0,0,0,2Z"/><path class="cls-1" d="M20,7a1,1,0,0,0,0-2H17a1,1,0,0,0,0,2Z"/><path class="cls-1" d="M12,7h1a1,1,0,0,0,0-2H12a1,1,0,0,0,0,2Z"/><path class="cls-1" d="M30,5H25V2a1,1,0,0,0-1-1H10a1,1,0,0,0,0,2H23V29H10a1,1,0,0,0,0,2H24a1,1,0,0,0,1-1V19h3a1,1,0,0,0,1-1V14a1,1,0,0,0-1-1H25V11h5a1,1,0,0,0,1-1V6A1,1,0,0,0,30,5ZM27,15v2H25V15Zm2-6H25V7h4Z"/><path class="cls-2" d="M3,2V5H2A1,1,0,0,0,1,6H1A1,1,0,0,0,2,7H3v3H2a1,1,0,0,0-1,1H1a1,1,0,0,0,1,1H3v3H2a1,1,0,0,0-1,1H1a1,1,0,0,0,1,1H3v3H2a1,1,0,0,0-1,1H1a1,1,0,0,0,1,1H3v3H2a1,1,0,0,0-1,1H1a1,1,0,0,0,1,1H3v3a1,1,0,0,0,1,1H7V1H4A1,1,0,0,0,3,2Z"/></svg>