<svg id="OBJECT" xmlns="http://www.w3.org/2000/svg" viewBox="0 0 32 32"><defs><style>.cls-1{fill:#011839;}.cls-2{fill:#7738c8;}</style></defs><path class="cls-1" d="M26,6H13V4.5a3.5,3.5,0,0,0-7,0V6H2A1,1,0,0,0,1,7V26a1,1,0,0,0,1,1H26a1,1,0,0,0,1-1V7A1,1,0,0,0,26,6ZM8,4.5a1.5,1.5,0,0,1,3,0V6H8ZM25,25H3V8H6v4a1,1,0,0,0,1,1H9.5a1,1,0,0,0,0-2H8V8H25Z"/><path class="cls-1" d="M22,21H6a1,1,0,0,0,0,2H22a1,1,0,0,0,0-2Z"/><path class="cls-1" d="M10,17a1,1,0,0,0,1,1H22a1,1,0,0,0,0-2H11A1,1,0,0,0,10,17Z"/><path class="cls-1" d="M6,18H7a1,1,0,0,0,0-2H6a1,1,0,0,0,0,2Z"/><path class="cls-2" d="M30,10H29V28a1,1,0,0,1-1,1H5v1a1,1,0,0,0,1,1H30a1,1,0,0,0,1-1V11A1,1,0,0,0,30,10Z"/></svg>