<svg id="OBJECT" xmlns="http://www.w3.org/2000/svg" viewBox="0 0 32 32"><defs><style>.cls-1{fill:#011839;}.cls-2{fill:#7738c8;}</style></defs><path class="cls-1" d="M21,1H12a1,1,0,0,0-.71.29l-5,5A1,1,0,0,0,6,7V26a1,1,0,0,0,1,1H21a1,1,0,0,0,1-1V2A1,1,0,0,0,21,1ZM11,4.41V6H9.41ZM20,25H8V8h4a1,1,0,0,0,1-1V3h7Z"/><path class="cls-1" d="M17,20H11a1,1,0,0,0,0,2h6a1,1,0,0,0,0-2Z"/><path class="cls-1" d="M15,13h2a1,1,0,0,0,0-2H15a1,1,0,0,0,0,2Z"/><path class="cls-1" d="M17,15.5H11a1,1,0,0,0,0,2h6a1,1,0,0,0,0-2Z"/><path class="cls-2" d="M25,5H24V28a1,1,0,0,1-1,1H10v1a1,1,0,0,0,1,1H25a1,1,0,0,0,1-1V6A1,1,0,0,0,25,5Z"/></svg>