<svg id="OBJECT" xmlns="http://www.w3.org/2000/svg" viewBox="0 0 32 32"><defs><style>.cls-1{fill:#011839;}.cls-2{fill:#7738c8;}</style></defs><path class="cls-1" d="M30,12H2a1,1,0,0,0-1,1V23a1,1,0,0,0,1,1H6v6a1,1,0,0,0,1,1h3a1,1,0,0,0,1-1V24h2.5v6a1,1,0,0,0,1,1h3a1,1,0,0,0,1-1V24H21v6a1,1,0,0,0,1,1h3a1,1,0,0,0,1-1V24h4a1,1,0,0,0,1-1V13A1,1,0,0,0,30,12Zm-1,2v3H3V14ZM3,22V19H6v3Zm6,7H8V19H9Zm2-7V19h2.5v3Zm5.5,7h-1V19h1Zm2-7V19H21v3ZM24,29H23V19h1Zm2-7V19h3v3Z"/><path class="cls-2" d="M27.32,6.05,25,5.28V10h3V7A1,1,0,0,0,27.32,6.05Z"/><path class="cls-2" d="M22,1H10A1,1,0,0,0,9,2v8H23V2A1,1,0,0,0,22,1ZM12.43,7h-.86a1,1,0,0,1,0-2h.86a1,1,0,0,1,0,2Zm4,0h-.86a1,1,0,0,1,0-2h.86a1,1,0,0,1,0,2Zm4,0h-.86a1,1,0,0,1,0-2h.86a1,1,0,0,1,0,2Z"/><path class="cls-2" d="M4,7v3H7V5.28l-2.32.77A1,1,0,0,0,4,7Z"/></svg>