<svg id="OBJECT" xmlns="http://www.w3.org/2000/svg" viewBox="0 0 32 32"><defs><style>.cls-1{fill:#011839;}.cls-2{fill:#7738c8;}</style></defs><path class="cls-1" d="M30.71,3.42,28.58,1.29a1,1,0,0,0-1.41,0L23.62,4.84h0a1,1,0,0,0-1.42,0L20.78,6.25,18.66,4.13a1,1,0,0,0-1.42,0L11.57,9.8a1,1,0,0,0,.71,1.71,1,1,0,0,0,.71-.3l5-5,1.42,1.42L6.9,20.14a1,1,0,1,0,1.42,1.42L22.91,7l2.14,2.14-14.6,14.6a1,1,0,0,0,0,1.42,1,1,0,0,0,1.42,0L27.17,9.8a1,1,0,0,0,0-1.42h0l3.55-3.55A1,1,0,0,0,30.71,3.42ZM25.75,7,25,6.25l2.83-2.84.72.72Z"/><path class="cls-2" d="M2.65,24.39a1,1,0,0,0-.29.62L2,28.55l-.75.74a1,1,0,0,0,0,1.42h0a1,1,0,0,0,1.42,0L3.45,30,7,29.64a1,1,0,0,0,.62-.29l2.13-2.13-5-5Z"/></svg>