<svg id="OBJECT" xmlns="http://www.w3.org/2000/svg" viewBox="0 0 32 32"><defs><style>.cls-1{fill:#011839;}.cls-2{fill:#7738c8;}</style></defs><path class="cls-1" d="M30.11,4,28,1.86a3.07,3.07,0,0,0-4.26,0L6.21,19.38a1,1,0,1,0,1.41,1.41L20.87,7.54l1.07,1.07L8.7,21.86a1,1,0,0,0,0,1.41,1,1,0,0,0,1.41,0L23.36,10l1.07,1.07L11.19,24.36a1,1,0,0,0,0,1.41,1,1,0,0,0,.71.29,1,1,0,0,0,.7-.29L30.11,8.25a3,3,0,0,0,0-4.25ZM28.7,6.84,25.85,9.69,22.28,6.12l2.86-2.86a1,1,0,0,1,1.42,0L28.7,5.41a1,1,0,0,1,.3.71A1,1,0,0,1,28.7,6.84Z"/><path class="cls-2" d="M2,23.63a1,1,0,0,0-.29.78L2,28.61l-.69.68a1,1,0,0,0,0,1.42h0a1,1,0,0,0,1.42,0L3.42,30l4.14.31h.08a1,1,0,0,0,.7-.3l2.15-2.14-6.4-6.39Z"/></svg>