<svg id="OBJECT" xmlns="http://www.w3.org/2000/svg" viewBox="0 0 32 32"><defs><style>.cls-1{fill:#011839;}.cls-2{fill:#7738c8;}</style></defs><path class="cls-1" d="M30,9H29V2a1,1,0,0,0-1-1H18a1,1,0,0,0-1,1V9H16a1,1,0,0,0-1,1v3a1,1,0,0,0,2,0V11H29V28a1,1,0,0,1-1,1H18a1,1,0,0,1-1-1V27a1,1,0,0,0-2,0v1a3,3,0,0,0,3,3H28a3,3,0,0,0,3-3V10A1,1,0,0,0,30,9ZM19,3h1.5V5a1,1,0,0,0,2,0V3h1V5a1,1,0,0,0,2,0V3H27V9H19Z"/><path class="cls-2" d="M1,16.5v7a1,1,0,0,0,1,1H9v-9H2A1,1,0,0,0,1,16.5Z"/><path class="cls-2" d="M25,23.5v-7a1,1,0,0,0-1-1H11v9H24A1,1,0,0,0,25,23.5Zm-5-2.25h0a1,1,0,0,1-1-1v-.5a1,1,0,0,1,1-1h0a1,1,0,0,1,1,1v.5A1,1,0,0,1,20,21.25Z"/></svg>