<svg id="OBJECT" xmlns="http://www.w3.org/2000/svg" viewBox="0 0 32 32"><defs><style>.cls-1{fill:#011839;}.cls-2{fill:#7738c8;}</style></defs><path class="cls-1" d="M24,13.11,20.5,11.38V8H23a1,1,0,0,0,1-1V4a3,3,0,0,0-3-3H11A3,3,0,0,0,8,4V7A1,1,0,0,0,9,8h2.5v3.38L8.05,13.11A1,1,0,0,0,7.5,14v5a1,1,0,0,0,2,0V14.62L13,12.89A1,1,0,0,0,13.5,12V8h5v4a1,1,0,0,0,.55.89l3.45,1.73V19a1,1,0,0,0,2,0V14A1,1,0,0,0,24,13.11ZM10,4a1,1,0,0,1,1-1H21a1,1,0,0,1,1,1V6H10Z"/><path class="cls-2" d="M25,21H7a1,1,0,0,0-1,1H6a1,1,0,0,0,1,1h6.5v5.5a.87.87,0,0,0,.24.59l1.67,1.67a.85.85,0,0,0,1.18,0l1.67-1.67a.87.87,0,0,0,.24-.59V23H25a1,1,0,0,0,1-1h0A1,1,0,0,0,25,21Z"/></svg>