<svg id="OBJECT" xmlns="http://www.w3.org/2000/svg" viewBox="0 0 32 32"><defs><style>.cls-1{fill:#011839;}.cls-2{fill:#7738c8;}</style></defs><path class="cls-1" d="M30,9H23.58a1,1,0,0,0,0,2H29v2H23.58a1,1,0,0,0,0,2H29v5H3V15H8.42a1,1,0,1,0,0-2H3V11H8.42a1,1,0,1,0,0-2H2a1,1,0,0,0-1,1V21a1,1,0,0,0,1,1H3v3a1,1,0,0,0,1,1H8a1,1,0,0,0,1-.76L9.78,22H22.22L23,25.24A1,1,0,0,0,24,26h4a1,1,0,0,0,1-1V22h1a1,1,0,0,0,1-1V10A1,1,0,0,0,30,9ZM7.22,24H5V22H7.72ZM27,24H24.78l-.5-2H27Z"/><path class="cls-1" d="M27,19a1,1,0,0,0,0-2h-.5a1,1,0,0,0,0,2Z"/><path class="cls-1" d="M22.5,19H23a1,1,0,0,0,0-2h-.5a1,1,0,0,0,0,2Z"/><path class="cls-2" d="M16,18a6,6,0,1,0-6-6A6,6,0,0,0,16,18Zm-.5-7h1a1,1,0,0,1,1,1h0a1,1,0,0,1-1,1h-1a1,1,0,0,1-1-1h0A1,1,0,0,1,15.5,11Z"/></svg>