<svg id="OBJECT" xmlns="http://www.w3.org/2000/svg" viewBox="0 0 32 32"><defs><style>.cls-1{fill:#011839;}.cls-2{fill:#7738c8;}</style></defs><path class="cls-1" d="M16,1A15,15,0,0,0,1,16v5a1,1,0,0,0,1,1H30a1,1,0,0,0,1-1V16A15,15,0,0,0,16,1ZM29,20H27v-.48a1,1,0,1,0-2,0V20H22.25v-.48a1,1,0,1,0-2,0V20H17.5v-.48a1,1,0,1,0-2,0V20H12.75v-.48a1,1,0,0,0-2,0V20H8v-.48a1,1,0,0,0-2,0V20H3V16a13,13,0,0,1,26,0Z"/><path class="cls-1" d="M16,6.5a9,9,0,0,0-9,9,1,1,0,0,0,1,1H24a1,1,0,0,0,1-1A9,9,0,0,0,16,6.5Zm-6.93,8a7,7,0,0,1,13.86,0Z"/><path class="cls-2" d="M30,31H27V30a1,1,0,0,0-1-1h0a1,1,0,0,0-1,1v1H22.25V30a1,1,0,0,0-1-1h0a1,1,0,0,0-1,1v1H17.5V30a1,1,0,0,0-1-1h0a1,1,0,0,0-1,1v1H12.75V30a1,1,0,0,0-1-1h0a1,1,0,0,0-1,1v1H8V30a1,1,0,0,0-1-1H7a1,1,0,0,0-1,1v1H2a1,1,0,0,1-1-1V25a1,1,0,0,1,1-1H30a1,1,0,0,1,1,1v5A1,1,0,0,1,30,31Z"/></svg>