<svg id="OBJECT" xmlns="http://www.w3.org/2000/svg" viewBox="0 0 32 32"><defs><style>.cls-1{fill:#011839;}.cls-2{fill:#7738c8;}</style></defs><path class="cls-1" d="M23,14a1,1,0,0,0-1,1V28a1,1,0,0,1-1,1H11a1,1,0,0,1-1-1V15a1,1,0,0,0-2,0V28a3,3,0,0,0,3,3H21a3,3,0,0,0,3-3V15A1,1,0,0,0,23,14Z"/><path class="cls-1" d="M18.5,26.5a1,1,0,0,0,1-1v-9a1,1,0,0,0-2,0v9A1,1,0,0,0,18.5,26.5Z"/><path class="cls-1" d="M13.5,26.5a1,1,0,0,0,1-1v-9a1,1,0,0,0-2,0v9A1,1,0,0,0,13.5,26.5Z"/><path class="cls-2" d="M13,3h6V5h2V3a2,2,0,0,0-2-2H13a2,2,0,0,0-2,2V5h2Z"/><path class="cls-2" d="M25,7H7A1,1,0,0,0,6,8v4H26V8A1,1,0,0,0,25,7Z"/></svg>