<svg id="OBJECT" xmlns="http://www.w3.org/2000/svg" viewBox="0 0 32 32"><defs><style>.cls-1{fill:#011839;}.cls-2{fill:#7738c8;}</style></defs><path class="cls-1" d="M19.18,19.18a4.5,4.5,0,1,0-7.66-3.35L9.73,17.62,7.6,15.48a4,4,0,0,0-5.47,0A3.88,3.88,0,0,0,1,18.23a3.8,3.8,0,0,0,1.13,2.71l.82.83a3.84,3.84,0,0,0,2.72,1.12,3.93,3.93,0,0,0,2.74-1.12l3.64-3.65a4.42,4.42,0,0,0,.77,1.06,4.63,4.63,0,0,0,1.06.77L10.23,23.6a3.88,3.88,0,0,0,0,5.46l.81.8A3.8,3.8,0,0,0,13.77,31h0a3.87,3.87,0,0,0,2.74-6.6l-2.14-2.13,1.79-1.79A4.46,4.46,0,0,0,19.18,19.18ZM7,20.35a1.89,1.89,0,0,1-2.64,0l-.82-.83A1.86,1.86,0,1,1,6.18,16.9L8.32,19Zm7.23-6.12a2.5,2.5,0,0,1,3.54,3.54,2.52,2.52,0,0,1-3.54,0,2.51,2.51,0,0,1,0-3.54Zm.87,11.59A1.87,1.87,0,0,1,13.78,29h0a1.84,1.84,0,0,1-1.32-.55l-.81-.8a1.88,1.88,0,0,1,0-2.64L13,23.68Z"/><path class="cls-1" d="M16,17a1,1,0,0,0,.76-.31,1,1,0,1,0-1.41-1.41l-.07.07a1,1,0,0,0,0,1.38A1,1,0,0,0,16,17Z"/><path class="cls-2" d="M20.67,4.67,16.14,9.2a.89.89,0,0,0-.24.41l-.14.44H16a6.12,6.12,0,0,1,3.47,1.08L29.59,1A12.65,12.65,0,0,0,20.67,4.67Z"/><path class="cls-2" d="M20.89,12.53A5.93,5.93,0,0,1,22,16c0,.08,0,.15,0,.23l.4-.13a1,1,0,0,0,.41-.24l4.53-4.53A12.63,12.63,0,0,0,31,2.41Z"/></svg>