<svg id="OBJECT" xmlns="http://www.w3.org/2000/svg" viewBox="0 0 32 32"><defs><style>.cls-1{fill:#011839;}.cls-2{fill:#7738c8;}</style></defs><path class="cls-1" d="M25,1H7A1,1,0,0,0,6,2v9a1,1,0,0,0,.17.55L7.8,14,6.17,16.45A1,1,0,0,0,6,17V30a1,1,0,0,0,1,1h3a1,1,0,0,0,0-2H8V17.3l1.83-2.75a1,1,0,0,0,0-1.1L8,10.7V7H24v3.7l-1.83,2.75a1,1,0,0,0,0,1.1L24,17.3V29H22a1,1,0,0,0,0,2h3a1,1,0,0,0,1-1V17a1,1,0,0,0-.17-.55L24.2,14l1.63-2.45A1,1,0,0,0,26,11V2A1,1,0,0,0,25,1ZM8,5V3H24V5Z"/><path class="cls-2" d="M16,17a4,4,0,0,0-4,4V31h8V21A4,4,0,0,0,16,17Zm-1,7h0a1,1,0,0,1-1-1V22a1,1,0,0,1,1-1h0a1,1,0,0,1,1,1v1A1,1,0,0,1,15,24Z"/></svg>