<svg id="OBJECT" xmlns="http://www.w3.org/2000/svg" viewBox="0 0 32 32"><defs><style>.cls-1{fill:#011839;}.cls-2{fill:#7738c8;}</style></defs><path class="cls-1" d="M21.5,1h-11a3,3,0,0,0-3,3V28a3,3,0,0,0,3,3h11a3,3,0,0,0,3-3V4A3,3,0,0,0,21.5,1ZM18.61,3l-.33,1H13.72l-.33-1ZM22.5,28a1,1,0,0,1-1,1h-11a1,1,0,0,1-1-1V4a1,1,0,0,1,1-1h.78l.54,1.63A2,2,0,0,0,13.72,6h4.56a2,2,0,0,0,1.9-1.37L20.72,3h.78a1,1,0,0,1,1,1Z"/><path class="cls-1" d="M19,25H13a1,1,0,0,0,0,2h6a1,1,0,0,0,0-2Z"/><path class="cls-2" d="M4.61,9.22a1,1,0,0,0-1.41.15,11.1,11.1,0,0,0,0,13.26,1,1,0,0,0,1.56-1.26,9,9,0,0,1,0-10.74A1,1,0,0,0,4.61,9.22Z"/><path class="cls-2" d="M28.8,9.37a1,1,0,1,0-1.56,1.26,9,9,0,0,1,0,10.74,1,1,0,0,0,1.56,1.26A11.1,11.1,0,0,0,28.8,9.37Z"/><path class="cls-2" d="M19.55,14.17l-3-2a1,1,0,0,0-1.1,0l-3,2A1,1,0,0,0,12,15v4a1,1,0,0,0,1,1h6a1,1,0,0,0,1-1V15A1,1,0,0,0,19.55,14.17Z"/></svg>