<svg id="OBJECT" xmlns="http://www.w3.org/2000/svg" viewBox="0 0 32 32"><defs><style>.cls-1{fill:#011839;}.cls-2{fill:#7738c8;}</style></defs><path class="cls-1" d="M22,20.68l-1-3A1,1,0,0,0,20,17h-.8l1.86-9.9a5.15,5.15,0,1,0-10.12,0L12.8,17H12a1,1,0,0,0-.95.68l-1,3a1,1,0,0,0,1.9.64L12.72,19h6.56l.77,2.32A1,1,0,0,0,21,22a1.25,1.25,0,0,0,.32-.05A1,1,0,0,0,22,20.68Zm-9-13.95a3.15,3.15,0,1,1,6.2,0L17.17,17H14.83Z"/><rect class="cls-2" x="9" y="29" width="14" height="2" rx="1"/><path class="cls-2" d="M6,24v2a1,1,0,0,0,1,1H25a1,1,0,0,0,1-1V24Z"/></svg>