<svg id="OBJECT" xmlns="http://www.w3.org/2000/svg" viewBox="0 0 32 32"><defs><style>.cls-1{fill:#011839;}.cls-2{fill:#7738c8;}</style></defs><path class="cls-1" d="M28,6H4A3,3,0,0,0,1,9v5a1,1,0,0,0,1,1H17v2a1,1,0,0,0,1,1H30a1,1,0,0,0,1-1V9A3,3,0,0,0,28,6ZM3,9A1,1,0,0,1,4,8H28a1,1,0,0,1,1,1v4H3Zm16,7V15H29v1Z"/><path class="cls-1" d="M20,11.5h1a1,1,0,0,0,0-2H20a1,1,0,0,0,0,2Z"/><path class="cls-1" d="M25,11.5h1a1,1,0,0,0,0-2H25a1,1,0,0,0,0,2Z"/><path class="cls-2" d="M13,20v1a7,7,0,0,1-2.11,5H28a3,3,0,0,0,3-3V20Z"/><path class="cls-2" d="M11,17H1v3.78A5.16,5.16,0,0,0,5.5,26,5,5,0,0,0,11,21ZM6.78,21a1,1,0,0,1-2,0v-.5a1,1,0,0,1,2,0Z"/></svg>