<svg id="OBJECT" xmlns="http://www.w3.org/2000/svg" viewBox="0 0 32 32"><defs><style>.cls-1{fill:#011839;}.cls-2{fill:#7738c8;}</style></defs><path class="cls-1" d="M19,7.39V3h1a1,1,0,0,0,0-2H12a1,1,0,0,0,0,2h1V7.39a12,12,0,1,0,6,0ZM15,3h2V7.05c-.33,0-.66,0-1,0s-.67,0-1,0Zm1,26A10,10,0,1,1,26,19,10,10,0,0,1,16,29Z"/><path class="cls-1" d="M17,18.59V16a1,1,0,0,0-2,0v3a1,1,0,0,0,.29.71l3,3a1,1,0,0,0,1.42,0,1,1,0,0,0,0-1.42Z"/><path class="cls-2" d="M23.64,4.29h0a1,1,0,0,0,0,1.42l1,1-.57.57a14.11,14.11,0,0,1,4,4l.57-.57.62.62a1,1,0,0,0,1.42,0h0a1,1,0,0,0,0-1.41L25.05,4.29A1,1,0,0,0,23.64,4.29Z"/><path class="cls-2" d="M7,4.29,1.29,10a1,1,0,0,0,0,1.41h0a1,1,0,0,0,1.42,0l.62-.62.57.57a14.11,14.11,0,0,1,4-4l-.57-.57,1-1a1,1,0,0,0,0-1.42h0A1,1,0,0,0,7,4.29Z"/></svg>