<svg id="OBJECT" xmlns="http://www.w3.org/2000/svg" viewBox="0 0 32 32"><defs><style>.cls-1{fill:#011839;}.cls-2{fill:#7738c8;}</style></defs><path class="cls-1" d="M20,25H17V24a3,3,0,0,0-6,0v1H7V20a1,1,0,0,0-1-1H5V6A3,3,0,0,1,8,3h4a1,1,0,0,0,0-2H8A5,5,0,0,0,3,6V19H2a1,1,0,0,0-1,1V30a1,1,0,0,0,1,1H22a1,1,0,0,0,1-1V28A3,3,0,0,0,20,25Zm-7-1a1,1,0,0,1,2,0v1H13ZM5,21v4H3V21Zm16,8H3V27H20a1,1,0,0,1,1,1Z"/><path class="cls-2" d="M19.5,14a1,1,0,0,0-1,1v1a1,1,0,0,0,2,0V15A1,1,0,0,0,19.5,14Z"/><path class="cls-2" d="M23,14a1,1,0,0,0-1,1v1a1,1,0,0,0,2,0V15A1,1,0,0,0,23,14Z"/><path class="cls-2" d="M26.5,14a1,1,0,0,0-1,1v1a1,1,0,0,0,2,0V15A1,1,0,0,0,26.5,14Z"/><path class="cls-2" d="M28,1H15V6H31V4A3,3,0,0,0,28,1Z"/><path class="cls-2" d="M17.5,10a2,2,0,0,0,2,2h7a2,2,0,0,0,2-2V8h-11Z"/></svg>