<svg id="OBJECT" xmlns="http://www.w3.org/2000/svg" viewBox="0 0 32 32"><defs><style>.cls-1{fill:#011839;}.cls-2{fill:#7738c8;}</style></defs><path class="cls-1" d="M25.8,10.4l-3-4A1,1,0,0,0,22,6H19.5V4.5a3.5,3.5,0,0,0-7,0V6H10a1,1,0,0,0-.8.4l-3,4A1,1,0,0,0,6,11V30a1,1,0,0,0,1,1H25a1,1,0,0,0,1-1V11A1,1,0,0,0,25.8,10.4ZM14.5,4.5a1.5,1.5,0,0,1,3,0V6h-3ZM24,29H8V11.33L10.5,8h2v6a1,1,0,0,0,1,1H16a1,1,0,0,0,0-2H14.5V8h7L24,11.33Z"/><path class="cls-2" d="M20,26H12a1,1,0,0,1,0-2h8a1,1,0,0,1,0,2Z"/><path class="cls-2" d="M20,21H17a1,1,0,0,1,0-2h3a1,1,0,0,1,0,2Z"/><path class="cls-2" d="M12.5,21H12a1,1,0,0,1,0-2h.5a1,1,0,0,1,0,2Z"/></svg>