<svg id="OBJECT" xmlns="http://www.w3.org/2000/svg" viewBox="0 0 32 32"><defs><style>.cls-1{fill:#011839;}.cls-2{fill:#7738c8;}</style></defs><path class="cls-1" d="M11,6A10,10,0,1,0,21,16,10,10,0,0,0,11,6Zm0,18a8,8,0,1,1,8-8A8,8,0,0,1,11,24Z"/><path class="cls-1" d="M11,10a6,6,0,1,0,6,6A6,6,0,0,0,11,10Zm0,10a4,4,0,1,1,4-4A4,4,0,0,1,11,20Z"/><path class="cls-1" d="M12,15H10a1,1,0,0,0,0,2h2a1,1,0,0,0,0-2Z"/><path class="cls-2" d="M17.62,26H25V20H22.3A12.07,12.07,0,0,1,17.62,26Z"/><path class="cls-2" d="M28,20H27v6h3a1,1,0,0,0,1-1V23A3,3,0,0,0,28,20Z"/></svg>