<svg id="OBJECT" xmlns="http://www.w3.org/2000/svg" viewBox="0 0 32 32"><defs><style>.cls-1{fill:#011839;}.cls-2{fill:#7738c8;}</style></defs><path class="cls-1" d="M29.73,11.79,26.42,8.08a3.25,3.25,0,0,0-4.84,0l-3.3,3.71A4.94,4.94,0,0,0,17,15.13V19.5a1.5,1.5,0,0,1-3,0V16.32a3.05,3.05,0,0,0-.69-1.92l-1.7-2a1,1,0,1,0-1.54,1.28l1.7,2a1,1,0,0,1,.23.64V19.5a3.5,3.5,0,0,0,7,0V15.13a2.93,2.93,0,0,1,.77-2l3.31-3.71a1.25,1.25,0,0,1,1.84,0l3.32,3.71a3,3,0,0,1,.76,2V21a8,8,0,0,1-8,8H12a8,8,0,0,1-8-8V16.32a1,1,0,0,1,.23-.64l1.7-2a1,1,0,1,0-1.54-1.28l-1.7,2A3.05,3.05,0,0,0,2,16.32V21A10,10,0,0,0,12,31h9A10,10,0,0,0,31,21V15.13A5,5,0,0,0,29.73,11.79Z"/><path class="cls-1" d="M27,21a1,1,0,0,0-2,0,4,4,0,0,1-4,4,1,1,0,0,0,0,2A6,6,0,0,0,27,21Z"/><path class="cls-2" d="M3,11H13l.8-.6A3,3,0,0,0,15,8V4a3,3,0,0,0-3-3H4A3,3,0,0,0,1,4V8a3,3,0,0,0,1.2,2.4ZM6,5h4a1,1,0,0,1,1,1h0a1,1,0,0,1-1,1H6A1,1,0,0,1,5,6H5A1,1,0,0,1,6,5Z"/></svg>