<svg id="OBJECT" xmlns="http://www.w3.org/2000/svg" viewBox="0 0 32 32"><defs><style>.cls-1{fill:#011839;}.cls-2{fill:#7738c8;}</style></defs><path class="cls-1" d="M28,6H4A3,3,0,0,0,1,9V19a3,3,0,0,0,3,3h6v2H7a1,1,0,0,0,0,2H25a1,1,0,0,0,0-2H22V22h6a3,3,0,0,0,3-3V9A3,3,0,0,0,28,6ZM20,24H12V22h8Zm9-5a1,1,0,0,1-1,1H4a1,1,0,0,1-1-1V9A1,1,0,0,1,4,8H28a1,1,0,0,1,1,1Z"/><path class="cls-2" d="M26,15.5H18a1,1,0,0,0,0,2h8a1,1,0,0,0,0-2Z"/><path class="cls-2" d="M21,12.5h5a1,1,0,0,0,0-2H21a1,1,0,0,0,0,2Z"/><path class="cls-2" d="M12,10H8a3,3,0,0,0-3,3v2a3,3,0,0,0,3,3h4a3,3,0,0,0,3-3V13A3,3,0,0,0,12,10Zm-1.75,5h-.5a1,1,0,0,1,0-2h.5a1,1,0,0,1,0,2Z"/></svg>